<svg xmlns="http://www.w3.org/2000/svg" xmlns:xlink="http://www.w3.org/1999/xlink" width="169" height="38" style="background:#000" viewBox="0 0 169 38"><defs><polygon id="a" points="0 0 17.443 0 17.443 8.722 0 8.722"/><polygon id="c" points="0 0 17.443 0 17.443 17.39 0 17.39"/><polygon id="e" points="0 0 21.46 0 21.46 20.358 0 20.358"/></defs><g fill="none" fill-rule="evenodd"><rect width="169" height="38" fill="#000"/><g transform="translate(0 1.557)"><mask id="b" fill="#fff"><use xlink:href="#a"/></mask><path fill="#FFF" d="M0,8.72161513 C2.23201986,6.48953374 5.31556957,5.1089822 8.7215659,5.1089822 C12.1275622,5.1089822 15.2111119,6.48953374 17.4431933,8.72161513 L17.4431933,-1.23071232e-05 L0,-1.23071232e-05 L0,8.72161513 Z" mask="url(#b)"/><g transform="translate(0 17.496)"><mask id="d" fill="#fff"><use xlink:href="#c"/></mask><path fill="#FFF" d="M17.3900881,0 L11.5757108,0 L11.5757108,11.9485551 C10.6595686,12.1655912 9.70410508,12.2810936 8.7215659,12.2810936 C5.31556957,12.2810936 2.23201986,10.9005421 0,8.6685222 L0,17.3901496 L17.4431318,17.3901496 L17.4431318,8.6685222 C17.4256557,8.68599832 17.4076873,8.70292061 17.3900881,8.72033519 L17.3900881,0 Z" mask="url(#d)"/></g><path fill="#FFF" d="M35.675224,11.7960083 C36.6226264,11.2534488 37.7071916,10.9817075 38.9283659,10.9817075 C40.8599074,10.9817075 42.5095542,11.7478875 43.8764448,13.2792628 L46.7195133,10.4873304 C45.7901409,9.34350637 44.6418863,8.47105441 43.2749957,7.86985144 C41.9081666,7.26914076 40.3862062,6.96835467 38.7096068,6.96835467 C36.7046534,6.96835467 34.9003676,7.41910306 33.2968725,8.32066137 C31.6928851,9.22221967 30.4400815,10.4727465 29.5379079,12.0723033 C28.6357342,13.6718601 28.1846781,15.4799611 28.1846781,17.496114 C28.1846781,19.5128207 28.6357342,21.320491 29.5379079,22.9200478 C30.4400815,24.5196046 31.6839009,25.7701313 33.2694891,26.6716896 C34.8550774,27.573248 36.6410255,28.0240579 38.6276414,28.0240579 C40.0124389,28.0240579 41.3887444,27.8009297 42.7556351,27.3551657 C44.1225257,26.9093402 45.3253009,26.2694929 46.3641451,25.4356853 L46.3641451,17.1762518 L42.3182399,17.1762518 L42.3182399,23.1381915 C41.2973025,23.7198262 40.149171,24.0106435 38.8737223,24.0106435 C37.6708241,24.0106435 36.5999197,23.7343486 35.6615631,23.1817587 C34.7226527,22.6292304 33.9892712,21.8585584 33.4608649,20.8697426 C32.9320278,19.8809268 32.66804,18.7566711 32.66804,17.496114 C32.66804,16.2165424 32.9320278,15.0823794 33.4608649,14.0935021 C33.9892712,13.1047478 34.7273294,12.3390602 35.675224,11.7960083"/><polygon fill="#FFF" points="54.866 19.183 63.751 19.183 63.751 15.519 54.866 15.519 54.866 11.098 64.926 11.098 64.926 7.317 50.465 7.317 50.465 27.675 65.282 27.675 65.282 23.894 54.866 23.894"/><path fill="#FFF" d="M83.2285142 20.8697426C82.7091536 21.8585584 81.993679 22.6292304 81.0825211 23.1817587 80.170994 23.7343486 79.1505489 24.0106435 78.0206935 24.0106435 76.8904688 24.0106435 75.8700237 23.7343486 74.9588658 23.1817587 74.0474003 22.6292304 73.3323564 21.8585584 72.8129343 20.8697426 72.2935122 19.8809268 72.0338319 18.7566711 72.0338319 17.496114 72.0338319 16.2361107 72.2935122 15.1114243 72.8129343 14.1226084 73.3323564 13.1338542 74.0474003 12.3631206 74.9588658 11.8105923 75.8700237 11.2580025 76.8904688 10.9817075 78.0206935 10.9817075 79.1505489 10.9817075 80.170994 11.2580025 81.0825211 11.8105923 81.993679 12.3631206 82.7091536 13.1338542 83.2285142 14.1226084 83.7479363 15.1114243 84.0076166 16.2361107 84.0076166 17.496114 84.0076166 18.7566711 83.7479363 19.8809268 83.2285142 20.8697426M83.3789072 8.33518377C81.793319 7.42408744 80.0069401 6.96829314 78.0206935 6.96829314 76.0340777 6.96829314 74.2435143 7.42408744 72.6488804 8.33518377 71.0539387 9.24677238 69.8058118 10.5018528 68.9036382 12.1013481 68.0014645 13.7009049 67.5504084 15.4994678 67.5504084 17.496114 67.5504084 19.4932524 68.0014645 21.2913846 68.9036382 22.8909414 69.8058118 24.4904982 71.0539387 25.7460094 72.6488804 26.6571672 74.2435143 27.5686943 76.0340777 28.0240579 78.0206935 28.0240579 80.0069401 28.0240579 81.793319 27.5686943 83.3789072 26.6571672 84.9644339 25.7460094 86.2125608 24.4904982 87.1240879 22.8909414 88.0352457 21.2913846 88.4909785 19.4932524 88.4909785 17.496114 88.4909785 15.4994678 88.0352457 13.7009049 87.1240879 12.1013481 86.2125608 10.5018528 84.9644339 9.24677238 83.3789072 8.33518377M104.879673 22.1057039C103.740464 23.2399283 102.214258 23.8071021 100.300623 23.8071021L96.2546564 23.8071021 96.2546564 11.1852858 100.300623 11.1852858C102.214258 11.1852858 103.740464 11.7523981 104.879673 12.886561 106.018451 14.020847 106.588271 15.557699 106.588271 17.4961324 106.588271 19.4351812 106.018451 20.9715409 104.879673 22.1057039M106.027804 8.5823908C104.432863 7.73904519 102.597009 7.31728007 100.519382 7.31728007L91.8259997 7.31728007 91.8259997 27.6750463 100.519382 27.6750463C102.597009 27.6750463 104.432863 27.2533427 106.027804 26.4099356 107.622377 25.56659 108.861581 24.3791372 109.745725 22.8473311 110.629561 21.3158942 111.071633 19.5319152 111.071633 17.4961324 111.071633 15.4603497 110.629561 13.6768629 109.745725 12.1449953 108.861581 10.6136199 107.622377 9.42579795 106.027804 8.5823908M119.2727 19.7354935 122.307205 11.9413924 125.34165 19.7354935 119.2727 19.7354935ZM120.147551 7.31729854 111.618161 27.6750032 116.156228 27.6750032 117.851165 23.3126819 126.735862 23.3126819 128.430799 27.6750032 133.078154 27.6750032 124.521503 7.31729854 120.147551 7.31729854Z"/><polygon fill="#FFF" points="148.633 7.317 131.957 7.317 131.957 11.156 138.081 11.156 138.081 27.675 142.51 27.675 142.51 11.156 148.633 11.156"/><g transform="translate(147.54 7.317)"><mask id="f" fill="#fff"><use xlink:href="#e"/></mask><path fill="#FFF" d="M7.65453832,12.418195 L10.6890441,4.62409385 L13.7234884,12.418195 L7.65453832,12.418195 Z M12.9033417,0 L8.52939017,0 L0,20.3577047 L4.53806706,20.3577047 L6.23300406,15.9953834 L15.1177009,15.9953834 L16.8126379,20.3577047 L21.4600537,20.3577047 L12.9033417,0 Z" mask="url(#f)"/></g></g></g></svg>