<svg xmlns="http://www.w3.org/2000/svg" xmlns:xlink="http://www.w3.org/1999/xlink" width="218" height="50" viewBox="0 0 218 50"><defs><polygon id="a" points="0 0 22.501 0 22.501 11.25 0 11.25"/><polygon id="c" points="0 0 22.501 0 22.501 22.432 0 22.432"/><polygon id="e" points="0 0 27.682 0 27.682 26.26 0 26.26"/></defs><g fill="none" fill-rule="evenodd" transform="translate(0 1.857)"><mask id="b" fill="#fff"><use xlink:href="#a"/></mask><path fill="#FFF" d="M0,11.2503674 C2.87917354,8.37111453 6.85677021,6.59028473 11.2503039,6.59028473 C15.6438377,6.59028473 19.6214343,8.37111453 22.5006873,11.2503674 L22.5006873,-1.58754607e-05 L0,-1.58754607e-05 L0,11.2503674 Z" mask="url(#b)"/><g transform="translate(0 22.569)"><mask id="d" fill="#fff"><use xlink:href="#c"/></mask><path fill="#FFF" d="M22.4321847,0 L14.931982,0 L14.931982,15.4129291 C13.7502127,15.6928929 12.5177213,15.8418841 11.2503039,15.8418841 C6.85677021,15.8418841 2.87917354,14.0610543 0,11.1818807 L0,22.432264 L22.5006079,22.432264 L22.5006079,11.1818807 C22.4780647,11.2044239 22.4548866,11.2262526 22.4321847,11.2487164 L22.4321847,0 Z" mask="url(#d)"/></g><path fill="#FFF" d="M46.0189281,15.2161528 C47.241021,14.5162831 48.640046,14.1657529 50.2152886,14.1657529 C52.7068628,14.1657529 54.8348095,15.1540797 56.5980175,17.1294633 L60.2654077,13.5280357 C59.0665723,12.0525703 57.5853918,10.9271589 55.8221838,10.1516427 C54.0590551,9.37676146 52.0958163,8.9887652 49.9331023,8.9887652 C47.346831,8.9887652 45.0194091,9.57020395 42.9509953,10.7331608 C40.8819465,11.8961177 39.265904,13.5092232 38.1021533,15.5725569 C36.9384027,17.6358905 36.3565671,19.9682338 36.3565671,22.5689517 C36.3565671,25.1703841 36.9384027,27.5021718 38.1021533,29.5655054 C39.265904,31.628839 40.8703574,33.2419446 42.9156724,34.4049014 C44.9609874,35.5678583 47.2647548,36.1493764 49.8273717,36.1493764 C51.6136785,36.1493764 53.3890313,35.8615543 55.1522393,35.2865451 C56.9154474,34.7114566 58.4669561,33.8860914 59.8070038,32.8105289 L59.8070038,22.1563485 L54.5880255,22.1563485 L54.5880255,29.8468979 C53.2710766,30.5971722 51.7900549,30.9723093 50.1448015,30.9723093 C48.593134,30.9723093 47.2117308,30.6159052 46.0013063,29.9030971 C44.7901674,29.1903683 43.8441487,28.1962469 43.1625358,26.920733 C42.4803673,25.6452191 42.1398386,24.1949958 42.1398386,22.5689517 C42.1398386,20.9183801 42.4803673,19.455377 43.1625358,18.1797838 C43.8441487,16.9043493 44.7962001,15.9166575 46.0189281,15.2161528"/><polygon fill="#FFF" points="70.774 24.745 82.235 24.745 82.235 20.018 70.774 20.018 70.774 14.316 83.751 14.316 83.751 9.439 65.097 9.439 65.097 35.699 84.209 35.699 84.209 30.822 70.774 30.822"/><path fill="#FFF" d="M107.359859 26.920733C106.689914 28.1962469 105.766994 29.1903683 104.591654 29.9030971 103.415838 30.6159052 102.099525 30.9723093 100.642078 30.9723093 99.1841551 30.9723093 97.8678412 30.6159052 96.6925015 29.9030971 95.5167649 29.1903683 94.5944006 28.1962469 93.9243768 26.920733 93.254353 25.6452191 92.9193808 24.1949958 92.9193808 22.5689517 92.9193808 20.9436221 93.254353 19.4928431 93.9243768 18.2173292 94.5944006 16.9418947 95.5167649 15.947694 96.6925015 15.2349652 97.8678412 14.522157 99.1841551 14.1657529 100.642078 14.1657529 102.099525 14.1657529 103.415838 14.522157 104.591654 15.2349652 105.766994 15.947694 106.689914 16.9418947 107.359859 18.2173292 108.029882 19.4928431 108.364855 20.9436221 108.364855 22.5689517 108.364855 24.1949958 108.029882 25.6452191 107.359859 26.920733M107.553857 10.7518939C105.508542 9.57663351 103.204219 8.98868582 100.642078 8.98868582 98.0794611 8.98868582 95.7697404 9.57663351 93.7127569 10.7518939 91.6553766 11.9277892 90.0453668 13.5467687 88.8816161 15.610023 87.7178655 17.6733566 87.1360298 19.9933964 87.1360298 22.5689517 87.1360298 25.1451421 87.7178655 27.4646263 88.8816161 29.5279599 90.0453668 31.5912935 91.6553766 33.2108287 93.7127569 34.3861684 95.7697404 35.5619844 98.0794611 36.1493764 100.642078 36.1493764 103.204219 36.1493764 105.508542 35.5619844 107.553857 34.3861684 109.599092 33.2108287 111.209102 31.5912935 112.384918 29.5279599 113.560258 27.4646263 114.148126 25.1451421 114.148126 22.5689517 114.148126 19.9933964 113.560258 17.6733566 112.384918 15.610023 111.209102 13.5467687 109.599092 11.9277892 107.553857 10.7518939M135.288572 28.51505C133.81906 29.9781324 131.850344 30.709753 129.381869 30.709753L124.162811 30.709753 124.162811 14.4283568 129.381869 14.4283568C131.850344 14.4283568 133.81906 15.1598981 135.288572 16.6229012 136.757529 18.086063 137.492562 20.0685111 137.492562 22.5689756 137.492562 25.0702338 136.757529 27.0520469 135.288572 28.51505M136.769594 11.0707763C134.712214 9.98291036 132.344071 9.43885832 129.664055 9.43885832L118.450106 9.43885832 118.450106 35.6991722 129.664055 35.6991722C132.344071 35.6991722 134.712214 35.1551995 136.769594 34.0672542 138.826498 32.9793883 140.424998 31.4476444 141.565491 29.4717052 142.705587 27.4962423 143.275834 25.1950149 143.275834 22.5689756 143.275834 19.9429362 142.705587 17.6423439 141.565491 15.6663253 140.424998 13.6909417 138.826498 12.1587216 136.769594 11.0707763M153.854725 25.4576188 157.769058 15.4036896 161.683312 25.4576188 153.854725 25.4576188ZM154.983232 9.43888213 143.980823 35.6991166 149.834661 35.6991166 152.02103 30.0719802 163.481763 30.0719802 165.668132 35.6991166 171.662944 35.6991166 160.625371 9.43888213 154.983232 9.43888213Z"/><polygon fill="#FFF" points="191.728 9.439 170.217 9.439 170.217 14.391 178.116 14.391 178.116 35.699 183.829 35.699 183.829 14.391 191.728 14.391"/><g transform="translate(190.318 9.439)"><mask id="f" fill="#fff"><use xlink:href="#e"/></mask><path fill="#FFF" d="M9.87390151,16.0187367 L13.7882345,5.96480745 L17.702488,16.0187367 L9.87390151,16.0187367 Z M16.6445473,0 L11.0024086,0 L0,26.2602345 L5.85383798,26.2602345 L8.04020642,20.6330981 L19.5009396,20.6330981 L21.687308,26.2602345 L27.6821995,26.2602345 L16.6445473,0 Z" mask="url(#f)"/></g></g></svg>